<?xml version="1.0"?>
<svg xmlns="http://www.w3.org/2000/svg" xmlns:xlink="http://www.w3.org/1999/xlink" xmlns:svgjs="http://svgjs.com/svgjs" version="1.1" width="512" height="512" x="0" y="0" viewBox="0 0 512 512" style="enable-background:new 0 0 512 512" xml:space="preserve"><g><g xmlns="http://www.w3.org/2000/svg"><path d="m202.943 211h-103.886c10.518 18.105 30.146 30 51.943 30s41.426-11.895 51.943-30z" fill="#ffffff" data-original="#000000" style=""/><path d="m301 181c0-82.705-67.295-150-150-150s-151 67.295-151 150 68.295 150 151 150 150-67.295 150-150zm-120-60h30v30h-30zm-90 0h30v30h-30zm-28.169 77.988-3.662-17.988h183.662l-3.662 17.988c-8.482 41.734-45.571 72.012-88.169 72.012s-79.688-30.278-88.169-72.012z" fill="#ffffff" data-original="#000000" style=""/><path d="m361 181c-10.325 0-20.409 1.051-30.154 3.049-.535 31.749-9.692 61.247-24.681 86.951h24.835v30h-30v-21.617c-21.037 31.924-51.641 57.006-88.099 70.421 9.371 73.763 71.832 131.196 148.099 131.196 82.705 0 151-67.295 151-150s-68.295-150-151-150zm30 90h30v30h-30zm17.974 114.023c-22.969-30.527-72.979-30.527-95.947 0l-23.965-18.047c16.948-22.529 43.842-35.976 71.938-35.976s54.99 13.447 71.938 35.977z" fill="#ffffff" data-original="#000000" style=""/></g></g></svg>
